<svg xmlns="http://www.w3.org/2000/svg" viewBox="0 0 400 71.99"><title>1linewhite_LRG_SavedBack [Converted]</title><path d="M274.26,24.93c-2.2,0-3.46,1.19-4.65,3.9h7.11S277.59,24.93,274.26,24.93Z" transform="translate(-0.04 1)" style="fill:none"/><path d="M348.57,24.93c-4.34,0-6.42,3.71-7.81,10.13-.5,2.51-1.57,8.18,3.15,8.3s6.79-4.47,7.74-9.13S353,24.93,348.57,24.93Z" transform="translate(-0.04 1)" style="fill:none"/><path d="M189.37,24.93c-4.34,0-6.35,3.71-7.74,10.13-.51,2.51-1.57,8.18,3.08,8.3,4.84,0,6.8-4.47,7.74-9.13S193.72,24.93,189.37,24.93Z" transform="translate(-0.04 1)" style="fill:none"/><path d="M130.61,24.93c-2.14,0-3.46,1.19-4.59,3.9h7.11S134,24.93,130.61,24.93Z" transform="translate(-0.04 1)" style="fill:none"/><path d="M302.83,39.09c-.94,2.83,1.13,3.52,3,3.52,4.59-.12,4.53-2.64,5.28-5.09a.87.87,0,0,1,.13-.38c.25-1.07.57-2.2.88-3.39C307.42,34.55,303.9,36,302.83,39.09Z" transform="translate(-0.04 1)" style="fill:none"/><path d="M399.08,23.86a2,2,0,0,0-3.51,1.46,2,2,0,1,0,3.51-1.46Zm-.46,3h-.41l-.59-1.35H397v1.35h-.37v-3h1a1.05,1.05,0,0,1,.82.28.81.81,0,0,1,.2.57.73.73,0,0,1-.68.77Z" transform="translate(-0.04 1)" style="fill:none"/><path d="M225.37,24.93c-4.34,0-6.42,3.71-7.8,10.13-.51,2.51-1.57,8.18,3.15,8.3s6.79-4.47,7.74-9.13S229.71,24.93,225.37,24.93Z" transform="translate(-0.04 1)" style="fill:none"/><path d="M397.58,24.19H397v1h.49a.94.94,0,0,0,.6-.15.43.43,0,0,0,.12-.35C398.23,24.36,398,24.19,397.58,24.19Z" transform="translate(-0.04 1)" style="fill:none"/><path d="M250.79,25.81c-2.2,0-5,1.38-5.29,2.32l-3.21,13a3,3,0,0,0,3,1.76c4.91,0,7.23-4,8.12-8.62S255.19,25.81,250.79,25.81Z" transform="translate(-0.04 1)" style="fill:none"/><path d="M112.74,22.22c-2.71-.88-7,.31-9.82,1.83,1.76-7.42,2.64-11.58,3.21-13.91.06-.56-1.64-.82-2.52-.38l-7.17,3.14c-.44.25-.63,1.83-.57,1.83,3.46.63,3.27,1.95,2.26,5.79l-5.28,20.2c-.44,1.76-2.33,2.45-4,3.08a5.64,5.64,0,0,0-.5,1.89c4,.13,7.74.19,12.27.06a3.74,3.74,0,0,0,.44-1.82c-.31-.19-3.14-.89-1.95-4.72,1.13-4.34,2.08-8.12,2.89-11.33,4.4-3.21,8.87-3,7.8,2.33-.32,1.63-2.14,7.86-2.77,10.51-.51,1.76-1.83,2.45-3.59,3.08a7.69,7.69,0,0,0-.5,1.89c4,.13,7.24.19,11.83,0a3.54,3.54,0,0,0,.44-1.76c-.38-.19-3.21-.95-2-4.79.57-2.26,1.7-6.36,2.52-9.88C117,24.43,115.19,23,112.74,22.22Z" transform="translate(-0.04 1)" style="fill:#fff"/><path d="M83.42,41.67a8.54,8.54,0,0,1,.38-3.21c.56-2.14,2.08-7.68,3.46-12.83h5L93,22.85h-5.1c1.13-4.34,2-7.74,2-7.74l-2.14.07a19.46,19.46,0,0,1-9,8.49c-.13.63-.32,1.32-.51,2h2.9c-1.2,4.53-2.83,10.56-3.78,14-1.57,6,2.83,6.61,4.66,6.61a15.62,15.62,0,0,0,4.53-.76,6.81,6.81,0,0,0,.69-2.64C87.25,42.61,84,43.62,83.42,41.67Z" transform="translate(-0.04 1)" style="fill:#fff"/><path d="M131.17,22c-5.29,0-9.94,3.27-12.77,10S117.21,46.38,126,46.38s12.21-8.24,12.08-8.56a4.62,4.62,0,0,0-2.71-.69s-2.89,6-8.05,6c-3.9,0-4.78-3.58-3.27-8.62a23.91,23.91,0,0,1,.82-2.58h14.53S142.37,22,131.17,22Zm1.95,6.86H126c1.13-2.71,2.45-3.9,4.59-3.9C134,24.93,133.12,28.83,133.12,28.83Z" transform="translate(-0.04 1)" style="fill:#fff"/><path d="M279,37.13s-2.83,6-8.05,6c-3.83,0-4.78-3.58-3.27-8.62.32-.95.57-1.76.82-2.58H283S286,22,274.83,22c-5.35,0-10,3.27-12.84,10s-1.13,14.41,7.61,14.41,12.21-8.24,12.14-8.56A5,5,0,0,0,279,37.13Zm-4.72-12.21c3.34,0,2.46,3.9,2.46,3.9H269.6C270.8,26.12,272.05,24.93,274.26,24.93Z" transform="translate(-0.04 1)" style="fill:#fff"/><path d="M392.3,22.91a5.1,5.1,0,0,1-1.51.63,13.86,13.86,0,0,0-5.35-1.13c-4.85,0-10,3.08-10.44,8.18-.19,2.77,2.33,4.91,6.73,6,2.71.75,6,1.26,5.54,3.9s-3.84,3.46-6.67,2.89c-4.09-.88-5.1-3.21-6.42-5.72a13.3,13.3,0,0,0-2.26.5c0,.44.13,2.27.25,4s.31,3.34.56,3.27h1.64s.69-.63,1.13-.63a24.74,24.74,0,0,0,4.72,1.52c2.77.5,8.81-.51,11.33-4.47,2-3.15,2.14-6.3-.32-8.5-1.7-1.57-5.29-2.45-6.23-2.64-6.55-1.39-3.4-4.85-2-5.28,6.1-1.7,8,3.08,8.75,4.46a5.21,5.21,0,0,0,2.2-.69c.06-2.08.13-5.85-.18-6.29Z" transform="translate(-0.04 1)" style="fill:#fff"/><path d="M367.32,39.15l1.26-5.22c.5-2,4.47-9.69,8.87-12.65,4.22-2.89,5-2,7.61-1.76s4.22.38,4.85-1.19c.88-1.89-1.57-3.46-4.22-3.46-3.71,0-9.19,3.52-13.78,8.37a19,19,0,0,0-1.51,1.88l.38-3.65c.13-.57-1.26-.69-2.14-.31l-7.3,3.21c-.5.19-.63,2-.56,2,3.4.62,2.89,1.88,1.89,5.72l-2.2,8.69c-.44,1.76-1.7,2.45-3.46,3.08a7.93,7.93,0,0,0-.5,1.89c4,.13,8.31.19,12.84.06a3.92,3.92,0,0,0,.44-1.82C369.46,43.68,366.32,43.18,367.32,39.15Z" transform="translate(-0.04 1)" style="fill:#fff"/><path d="M292.38,39.15l1.26-5.22h.07c.44-2,4.53-9.88,9.18-13.15,3.15-2.2,5.16-1.76,6.55-1.45,2.52.51,4.47.44,5.16-1.07.82-2-1.64-3.65-4.28-3.65-3.71,0-8.75,3.78-13.27,8.62a13.86,13.86,0,0,0-1.57,1.88l.44-3.65c.06-.57-1.32-.69-2.2-.31l-7.3,3.21c-.5.19-.63,2-.57,2,3.4.62,2.89,1.88,1.89,5.72l-2.2,8.69c-.44,1.76-1.7,2.45-3.46,3.08a7.59,7.59,0,0,0-.51,1.89c4,.13,8.31.19,12.84.06a3.87,3.87,0,0,0,.44-1.82C294.52,43.68,291.38,43.18,292.38,39.15Z" transform="translate(-0.04 1)" style="fill:#fff"/><path d="M252.49,22.29a12.49,12.49,0,0,0-5,1.19.63.63,0,0,1-.76-.63c0-.7-1.82-.51-2.14-.38-2.71,1.32-7,3.34-7.61,3.78a3.9,3.9,0,0,0-.57,1.57s-.13.38.44.38c2.52.31,2.45.56,1.63,4L234.3,49.28c-.5,1.7-2.32,2.46-4,3.08a5.72,5.72,0,0,0-.5,1.83c4,.19,8.12.19,12.65.06a2.84,2.84,0,0,0,.5-1.88,3.15,3.15,0,0,1-2.45-3.71l.82-3.46a9.66,9.66,0,0,0,4.53,1c5,0,11.2-3.78,13.65-11C262.18,25.87,257.71,22.29,252.49,22.29Zm.95,12c-.88,4.59-3.21,8.62-8.12,8.62a3,3,0,0,1-3-1.76l3.21-13c.25-.94,3.08-2.32,5.29-2.32C255.19,25.81,254.31,29.59,253.43,34.24Z" transform="translate(-0.04 1)" style="fill:#fff"/><path d="M350,21.9c-4.85,0-11,2.08-14.66,9.95-2.07,4.47-2.52,14.6,7.55,14.6,5.28,0,13.09-3.71,15-11.64C360.34,25.37,355.5,21.9,350,21.9Zm1.64,12.33c-.94,4.66-2.89,9.13-7.74,9.13s-3.65-5.79-3.15-8.3c1.38-6.42,3.46-10.13,7.81-10.13S352.6,29.52,351.66,34.24Z" transform="translate(-0.04 1)" style="fill:#fff"/><path d="M234.75,34.81c2.33-9.44-2.46-12.9-7.93-12.9-4.85,0-11,2.08-14.66,9.95-2.08,4.47-2.52,14.6,7.55,14.6C225,46.45,232.79,42.74,234.75,34.81Zm-6.29-.57c-.94,4.66-2.89,9.13-7.74,9.13s-3.65-5.79-3.15-8.3c1.38-6.42,3.46-10.13,7.8-10.13S229.39,29.52,228.45,34.24Z" transform="translate(-0.04 1)" style="fill:#fff"/><path d="M190.82,21.9c-4.91,0-11,2.08-14.6,9.95-2.08,4.47-2.52,14.6,7.49,14.6,5.28,0,13.09-3.71,15-11.64C201.08,25.37,196.3,21.9,190.82,21.9Zm1.64,12.33c-.94,4.66-2.9,9.13-7.74,9.13-4.65-.13-3.59-5.79-3.08-8.3,1.38-6.42,3.4-10.13,7.74-10.13S193.4,29.52,192.46,34.24Z" transform="translate(-0.04 1)" style="fill:#fff"/><path d="M167.1,25.12c.7,0,2.27.57,2.39,3s3.34,3.65,5.35.63a3.92,3.92,0,0,0-1.07-5.34,10,10,0,0,0-5.16-1.33c-4.85,0-9.94,2-13.53,9.76-2,4.4-3.28,14.85,7.49,14.85,4.4,0,9-2.9,11.51-8.31.32-.63-.19-.94-1.07-1.07s-1.33-.31-1.76.76a8.06,8.06,0,0,1-7.43,5.22c-4.72-.07-3.64-5.79-3.15-8.24C162,28.64,162.76,25.12,167.1,25.12Z" transform="translate(-0.04 1)" style="fill:#fff"/><path d="M327.81,41.67a9,9,0,0,1,.44-3.21c.5-2.14,2.08-7.68,3.4-12.83h5.1l.7-2.77h-5c1.07-4.34,2-7.74,2-7.74l-2.14.07a20.08,20.08,0,0,1-9,8.49c-.19.63-.38,1.32-.5,2h2.9c-1.26,4.53-2.9,10.56-3.78,14-1.57,6,2.83,6.61,4.59,6.61a16.17,16.17,0,0,0,4.59-.76,8.18,8.18,0,0,0,.69-2.64C331.64,42.61,328.37,43.62,327.81,41.67Z" transform="translate(-0.04 1)" style="fill:#fff"/><path d="M318.68,31.85c.94-3.65,1.45-5.85,0-7.61-1.7-2.14-4.91-2.39-6.42-2.39-5.1,0-8,1.89-9.56,3.52-1.57,1.82-1.57,4.53,1.19,4.53,2,0,3.15-1.58,4.22-3,.94-1.13,1.76-2.14,3.46-2.14,1.13,0,2.77.76,1.7,4.72-.13.38-.19.76-.32,1.13-7,1.44-14.28,2.58-16.3,8.43-1.51,4.4.94,7.11,5.79,7.11s7.36-2,7.67-1.76A11.14,11.14,0,0,0,312,45.57c.25.12.5.25.81.38a5.35,5.35,0,0,0,1.45.25.06.06,0,0,1-.06-.06h.18a8.56,8.56,0,0,0,3.9-.89,3.25,3.25,0,0,0,.51-2.32c-.19-.32-2.33.19-2.33-1.51a17.27,17.27,0,0,1,.44-3C317.49,36.19,318.06,34,318.68,31.85Zm-7.43,5.28a.87.87,0,0,0-.13.38c-.75,2.45-.69,5-5.28,5.09-1.89,0-4-.69-3-3.52,1.07-3.09,4.59-4.54,9.31-5.35C311.82,34.93,311.51,36.07,311.26,37.13Z" transform="translate(-0.04 1)" style="fill:#fff"/><path d="M209.2,31.22,202,31.15c-.5,0-.56.19-.62.44s-.63,2.9-.82,3.52-.07.88.38.95,6.73.19,7.43.12.63-.19.82-.75a17.15,17.15,0,0,0,.69-3.27C210,31.22,209.7,31.22,209.2,31.22Z" transform="translate(-0.04 1)" style="fill:#fff"/><path d="M30.81,36.07c-3.46-.06-5.35.76-6.74,3.08L18,49.72c-.7,1.2-1.2,1.2-1.89,0L7.59,34.93l8.5-14.79c.69-1.19,1.19-1.19,1.89,0l6.1,10.57c1.38,2.4,3.27,3.15,6.74,3.15H37L28,18.26H16.53a16.71,16.71,0,0,0,0,33.41H28l9-15.6Z" transform="translate(-0.04 1)" style="fill:#fff"/><path d="M42.08,27.38c1.76-3,2-5,.69-7.43L36.66,9.39c-.69-1.2-.44-1.57.95-1.57H54.66L63.22,22.6c.69,1.2.44,1.64-.95,1.57l-12.2.06c-2.71,0-4.4,1.26-6.11,4.27l-3.08,5.35H58.94l5.72-9.94A16.7,16.7,0,0,0,35.72,7.24L30,17.19l9,15.6Z" transform="translate(-0.04 1)" style="fill:#fff"/><path d="M58.94,36.13h-18L44,41.48c1.7,3,3.33,4.28,6.1,4.28l12.21.06c1.38-.06,1.64.38.94,1.57L54.72,62.18H37.67c-1.38,0-1.63-.38-.95-1.57L42.83,50c1.32-2.39,1.07-4.46-.7-7.42L39.06,37.2l-9,15.61,5.73,9.94A16.7,16.7,0,0,0,64.73,46.07Z" transform="translate(-0.04 1)" style="fill:#fff"/><path d="M399.34,23.61a2.34,2.34,0,0,0-1.72-.71,2.42,2.42,0,0,0,0,4.84,2.42,2.42,0,0,0,1.72-4.13Zm-.26,3.17a2.1,2.1,0,1,1,.59-1.46A2,2,0,0,1,399.08,26.78Z" transform="translate(-0.04 1)" style="fill:#fff"/><path d="M398.68,24.71a.81.81,0,0,0-.2-.57,1.05,1.05,0,0,0-.82-.28h-1v3H397V25.53h.59l.59,1.35h.41L398,25.48A.73.73,0,0,0,398.68,24.71Zm-.57.34a.94.94,0,0,1-.6.15H397v-1h.55c.44,0,.65.17.65.52A.43.43,0,0,1,398.11,25.06Z" transform="translate(-0.04 1)" style="fill:#fff"/></svg>